PathFileType	4	(X/Y/Z)	0_coords_data.trc
DataRate	CameraRate	NumFrames	NumMarkers	Units	OrigDataRate	OrigDataStartFrame	OrigNumFrames
30.0	30.0	8	21	m	30.0	20	48
Frame#	Time	THUMB_TIP	THUMB_IP	THUMB_MCP	THUMB_CMC	INDEX_TIP	INDEX_DIP	INDEX_PIP	INDEX_MCP	MIDDLE_TIP	MIDDLE_DIP	MIDDLE_PIP	MIDDLE_MCP	RING_TIP	RING_DIP	RING_PIP	RING_MCP	PINKY_TIP	PINKY_DIP	PINKY_PIP	PINKY_MCP	WRIST
X1	Y1	Z1	X2	Y2	Z2	X3	Y3	Z3	X4	Y4	Z4	X5	Y5	Z5	X6	Y6	Z6	X7	Y7	Z7	X8	Y8	Z8	X9	Y9	Z9	X10	Y10	Z10	X11	Y11	Z11	X12	Y12	Z12	X13	Y13	Z13	X14	Y14	Z14	X15	Y15	Z15	X16	Y16	Z16	X17	Y17	Z17	X18	Y18	Z18	X19	Y19	Z19	X20	Y20	Z20	X21	Y21	Z21
18	0.6333333333333304	0.47897642955709163	-0.017651163290679617	-0.1695262944931869	0.4863211761464735	-0.02359568552074076	-0.1485807137422487	0.47264854887929864	-0.02788651018763233	-0.12094978745862772	0.4747163381592656	-0.031081796788651528	-0.07650426585035988	0.5711706524625608	0.023746045937701576	-0.17218070185065568	0.5576652175097505	0.018019113198501024	-0.16155970998849506	0.5393037630442423	0.010051782707184875	-0.1463482515523944	0.507828882139801	-0.00021468383451317408	-0.11956079869103708	0.5968717613455689	0.03605411094159716	-0.14144446517422526	0.5824326352069893	0.027805566962183836	-0.13426998550153302	0.5581038835306601	0.01711648624622486	-0.12230065196456358	0.5200736152854443	0.005913409922174595	-0.10170119325627619	0.601878699480217	0.038775454471405735	-0.10967426409854705	0.5868458786584758	0.03073436651323458	-0.10381293297069011	0.5650603543226675	0.021468351292342702	-0.09608558735009676	0.5302854829607585	0.005005437832539483	-0.08365974185863367	0.600284217023498	0.02681477768518825	-0.06589261395030283	0.5838561851243084	0.02228823264973101	-0.06427083777549228	0.5635816230987997	0.017000937123941906	-0.0629296965835327	0.5309432755671165	0.0016633681826504487	-0.06354670579919952	0.462283081001861	-0.023011742144276925	-0.051989820119430985
19	0.6666666666666637	0.4789252419973027	-0.017528735330506362	-0.16951120305186407	0.4862986980079146	-0.023513172802040017	-0.1485870864729287	0.4726671624317461	-0.027869980115319493	-0.12094618439158183	0.47471364765747803	-0.031093647262770086	-0.07650172615049952	0.5712425436964834	0.023659296704593102	-0.1721405724471181	0.557724196257122	0.017945236936412257	-0.16152907851485915	0.5393535345300634	0.009981946535468245	-0.1463266238873914	0.5078525375862056	-0.0002519310596877933	-0.1195574058392222	0.5969179227716982	0.03601052908954672	-0.1413956611119459	0.5824801780734318	0.027753767197202905	-0.13422785732830206	0.5581428443351636	0.017058077995634413	-0.12228189696441333	0.520102802977146	0.005874164581911034	-0.10169007200316593	0.6019020068118479	0.03875342096487633	-0.10963754448406951	0.5868731198268956	0.030701380084717345	-0.10378116389041075	0.5650919791153206	0.021418297247066453	-0.09606195011361415	0.5303049310636312	0.004973481351295828	-0.0836462281449302	0.6002846512280561	0.02683595278785622	-0.06584144305534281	0.5838621038548321	0.02228669531019012	-0.06422769147095739	0.5635928608358152	0.01697602404334131	-0.06289856501666374	0.5309545799036562	0.0016389666434436512	-0.06353160459340726	0.4622830810018609	-0.023011742144276925	-0.051989820119430985
20	0.6999999999999968	0.4785569661136573	-0.01731572012502025	-0.16951545147138758	0.4860469416637907	-0.023379586944805686	-0.14865568672078913	0.4725517088158294	-0.027805343974793062	-0.12095891136532899	0.47466703965253	-0.031100817220537702	-0.07652294359666342	0.571233738337231	0.02352223971906664	-0.17221106573953754	0.5577229466422041	0.01780330641737471	-0.16159257669144833	0.5393721844005372	0.009831543740829063	-0.14637054141430345	0.5078789499908319	-0.00035667365405667173	-0.11957478602786387	0.5969162836582794	0.03594649720877674	-0.14144080691897376	0.5824966400771886	0.02766002060769468	-0.13427085681217227	0.5581831151913955	0.016921205935021555	-0.1223151085271883	0.5201442081527983	0.005738694037226044	-0.10172042717581437	0.601882895175379	0.03871919886465913	-0.1097011430786527	0.5868753723246513	0.030628135522814848	-0.10384375868942611	0.56511944044404	0.021290869366273113	-0.09611880770394346	0.5303400224184553	0.004842785977709818	-0.08368604981824074	0.6002851053257395	0.02684397140457162	-0.06586413968803623	0.5838742292896119	0.022248232459768258	-0.06426341132942298	0.5636167336131657	0.016889950989249725	-0.0629463283398344	0.5309795125789143	0.0015503403571492935	-0.06357210770748462	0.462283081001861	-0.023011742144276925	-0.051989820119430985
21	0.7333333333333302	0.47776776986949165	-0.017198561330313722	-0.16958450553584437	0.4854544696591714	-0.023329923350433934	-0.14881623535940533	0.4722117446855997	-0.027705240089823557	-0.12098986587460975	0.47457310060877944	-0.03109169957349367	-0.07657313602684268	0.5709965931903679	0.023383336577345815	-0.1725147310325195	0.5575330417017422	0.017648106031789346	-0.16184515222628532	0.539255489776175	0.009646870169788602	-0.1465506710880176	0.5078410914021837	-0.0005279590267537326	-0.11965746526161292	0.5967771256797046	0.03592083304375682	-0.14169278929529128	0.5824021708438434	0.02757779867348109	-0.13449873265363566	0.5581401487390091	0.01677354218278926	-0.12249740459929614	0.5201676674866703	0.005519280583530017	-0.10181939249957483	0.6017519694504104	0.03874249053310175	-0.10995810035200346	0.5867983512310694	0.030565357783817637	-0.10408240446549091	0.5651018171021445	0.021116566230160783	-0.09632607002402027	0.5303557667271587	0.004658685817088948	-0.08381323702553498	0.6002516942897123	0.02692065944225508	-0.06602954447016779	0.5838639664724605	0.02223596165856545	-0.06444967622782366	0.5636312886697046	0.0167845652388785	-0.06313322455560472	0.530994086979552	0.0014430612071435478	-0.06371181843785129	0.4622830810018609	-0.023011742144276925	-0.051989820119430985
22	0.7666666666666633	0.47691016862280045	-0.017407830737814378	-0.16970720147081833	0.4847680867922548	-0.023487480314509757	-0.14898786308691364	0.47176243013509234	-0.02767977482792272	-0.12102185583473676	0.47446549030697915	-0.03109189623820896	-0.07662657575691065	0.5706084087157433	0.023426027459842458	-0.17291374821999045	0.5572204910524503	0.017648119474417134	-0.16217226601533893	0.5390603192598935	0.009556147704286477	-0.14678597385847947	0.5078072377148867	-0.0007195874105472289	-0.11974359497290568	0.5965466088479644	0.03609314778863737	-0.1419618475935177	0.5822302337797651	0.027671259728203612	-0.13474289985827492	0.5580374671367039	0.016750863271357774	-0.1227069315391204	0.5201749662465668	0.0053269755830016585	-0.10192054807714707	0.6015539481725529	0.03892942425314505	-0.11018764239138845	0.5866648400984132	0.030635881203908255	-0.10431128259581393	0.5650539535524066	0.021004047636979384	-0.0965409966400324	0.5303511794098551	0.004519404557929763	-0.08394358248603181	0.60018060784198	0.027110639902171885	-0.06615958364771574	0.5838205547366809	0.022315812743212482	-0.06462390955875633	0.5636166747007286	0.01675363265080576	-0.06332876357760886	0.5309935371349188	0.0013800433358901465	-0.06384557876561886	0.462283081001861	-0.023011742144276925	-0.051989820119430985
23	0.7999999999999965	0.47674986736305647	-0.018154279345381275	-0.16982079597287397	0.4846079164381598	-0.02397233559462497	-0.14902653507680208	0.4715995996350961	-0.027850360001113628	-0.12101645437977782	0.4744515431969857	-0.031131082981879277	-0.0766205843619116	0.5704422919768195	0.02367535586588898	-0.17300466224861233	0.5570872016310984	0.017852331122874765	-0.1622466910318881	0.5389965080202235	0.009638985284200707	-0.14684287371890403	0.5078543177195018	-0.0008541521793296036	-0.11975608462449289	0.5964326357217986	0.03635086403804699	-0.1419716999637088	0.5821499701543024	0.027863075491612044	-0.13476316960877066	0.5579973421640424	0.016832557416862293	-0.1227470228816899	0.5201918672124278	0.005239865012558131	-0.10195030517186762	0.6014828648025965	0.039132019349835234	-0.11009132269166672	0.5866175436505743	0.030751782798674743	-0.1042780738243087	0.5650464628333273	0.020972466994144123	-0.09658174783257392	0.5303379594028272	0.004490575841150979	-0.08399652285898401	0.6001423960205782	0.02723824524381746	-0.06606457131416005	0.5837913887550891	0.022388729102332472	-0.06460623164268431	0.5636008243896805	0.016762889015543014	-0.06338024105374365	0.5309809382360583	0.0013829275575207856	-0.0639124664519378	0.462283081001861	-0.023011742144276925	-0.051989820119430985
24	0.8333333333333297	0.4780938215608206	-0.019263944990938975	-0.16982002109479746	0.4855738865050653	-0.02467482448150582	-0.1487778964024465	0.47211277867160106	-0.0282466695421405	-0.12094158021731405	0.47464004006770755	-0.031201429438453943	-0.07650316953701533	0.5709619311377292	0.02376521594514691	-0.1723861332563918	0.5574874571143228	0.017999899476319525	-0.16174659962907445	0.5392204167427681	0.00984945548781635	-0.14651848970517842	0.5078713587221797	-0.0007085201664278618	-0.1196968229913783	0.5966602069803659	0.03636327914780768	-0.14158058567670362	0.5822969759072605	0.027967242037270745	-0.13442487788647994	0.5580359351040743	0.017061656648429513	-0.1225135531712001	0.5201430341079112	0.005488151438735711	-0.10186579415826674	0.6017127589905796	0.03908776485496224	-0.10961258892620857	0.5867577888824222	0.030803242896165428	-0.10389283674815639	0.5650847678859118	0.021151419331833177	-0.09632299911662029	0.5302718215018905	0.004771032964905997	-0.08389470315404218	0.6001887217233427	0.027167371323853273	-0.06570536733631388	0.5838007707984005	0.022425631737872376	-0.06430859599481695	0.5635796535312521	0.016897370436615655	-0.06314379452964838	0.5309320096888996	0.001580692074124146	-0.06378735220607915	0.4622830810018609	-0.023011742144276925	-0.051989820119430985
25	0.8666666666666629	0.481221426872815	-0.020400481822764438	-0.16955810086596235	0.48779265522983073	-0.0253692220637336	-0.14810744637017303	0.4733066121574596	-0.0287691881356813	-0.1207685585578458	0.47507519385541486	-0.031244819178276928	-0.0762642512413782	0.5723167690599824	0.023512416755030352	-0.1709025016170651	0.5585167905578781	0.018005734315222566	-0.16054696967280616	0.5397905662030476	0.010180883615461656	-0.14571086284052007	0.5078120972100915	-0.00011874238983033969	-0.11953967029952833	0.597305542937545	0.035946932829617806	-0.14074659673585704	0.5827261759112577	0.02785701151242459	-0.13367586620822228	0.5581639156727768	0.01745884471895931	-0.121929247575083	0.5199880218689283	0.006234590302357956	-0.10161262467488869	0.6022799999947743	0.03865739014226077	-0.10881473221257165	0.5870844948911444	0.030778172621021893	-0.10315659153752987	0.5651414109397777	0.021653390100049186	-0.09571217150315348	0.530129202145444	0.0054905931147060105	-0.0835618602745237	0.6002903691058341	0.026889039911461965	-0.06521687614956503	0.5838097675760564	0.02249974354942863	-0.06375953244853588	0.563499108120332	0.01731459241370048	-0.06257490627406212	0.5308314463588595	0.0020483669101830637	-0.06338093661703575	0.4622830810018609	-0.023011742144276925	-0.051989820119430985
